<?xml version="1.0" encoding="UTF-8" standalone="no"?>
<!DOCTYPE svg PUBLIC "-//W3C//DTD SVG 1.1//EN" "http://www.w3.org/Graphics/SVG/1.1/DTD/svg11.dtd">
<svg width="100%" height="100%" viewBox="0 0 265 265" version="1.1" xmlns="http://www.w3.org/2000/svg" xmlns:xlink="http://www.w3.org/1999/xlink" xml:space="preserve" xmlns:serif="http://www.serif.com/" style="fill-rule:evenodd;clip-rule:evenodd;stroke-linejoin:round;stroke-miterlimit:1.41421;">
    <g transform="matrix(1.07656,0,0,1.07656,396.179,-188.405)">
        <g transform="matrix(0.982531,0,0,0.982531,-373.26,206.003)">
            <path d="M136.349,112.757L136.349,210.031C136.53,214.142 138.452,215.782 143.346,214.28L252.888,171.761C255.325,170.795 255.879,170.149 255.879,167.528L255.879,67.108C255.879,62.594 253.768,62.78 250.718,63.989L138.996,107.354C136.56,108.32 136.349,110.136 136.349,112.757" style="fill:rgb(233,108,67);fill-rule:nonzero;"/>
        </g>
        <g transform="matrix(-0.982531,0,0,0.982531,-116.595,206.003)">
            <path d="M136.349,112.757L136.349,210.031C136.53,214.142 138.452,215.782 143.346,214.28L252.888,171.761C255.325,170.795 255.879,170.149 255.879,167.528L255.879,67.108C255.879,62.594 253.768,62.78 250.718,63.989L138.996,107.354C136.56,108.32 136.349,110.136 136.349,112.757" style="fill:rgb(56,156,91);fill-rule:nonzero;"/>
        </g>
        <g transform="matrix(1.00393,2.45893e-16,-2.40651e-16,0.982531,-373.909,207.305)">
            <path d="M128.106,-28.718C124.762,-28.747 121.776,-26.834 119.36,-25.205C82.832,-0.574 55.263,17.614 16.092,44.9C13.394,46.78 12.471,49.586 16.394,51.796L117.746,93.201C126.164,96.54 129.537,96.54 137.954,93.201L240.555,52.515C243.087,51.06 242.873,48.021 241.1,46.769C201.39,18.727 177.391,2.894 136.543,-25.226C134.128,-26.888 131.372,-28.689 128.106,-28.718Z" style="fill:rgb(57,62,76);"/>
        </g>
    </g>
</svg>
